<?xml version="1.0" standalone="no"?><!DOCTYPE svg PUBLIC "-//W3C//DTD SVG 1.1//EN" "http://www.w3.org/Graphics/SVG/1.1/DTD/svg11.dtd"><svg t="1482131914331" class="icon" style="" viewBox="0 0 1024 1024" version="1.1" xmlns="http://www.w3.org/2000/svg" p-id="3406" xmlns:xlink="http://www.w3.org/1999/xlink" width="200" height="200"><defs><style type="text/css"></style></defs><path d="M921.6 761.6c57.6-76.8 83.2-160 83.2-249.6 0-249.6-217.6-454.4-492.8-454.4C243.2 57.6 19.2 262.4 19.2 512s217.6 454.4 492.8 454.4c83.2 0 172.8-19.2 243.2-57.6 160 57.6 179.2 44.8 192 44.8l6.4 0 6.4 0c6.4-6.4 19.2-12.8 12.8-38.4C966.4 876.8 953.6 832 921.6 761.6zM787.2 857.6 768 851.2l-19.2 12.8c-70.4 44.8-153.6 64-236.8 64C262.4 921.6 64 742.4 64 512s204.8-409.6 448-409.6c249.6 0 448 185.6 448 409.6 0 89.6-32 172.8-89.6 243.2l-12.8 19.2 6.4 19.2c19.2 32 32 76.8 44.8 102.4C876.8 889.6 832 870.4 787.2 857.6zM275.2 454.4C243.2 454.4 217.6 480 217.6 512c0 32 25.6 57.6 57.6 57.6 32 0 57.6-25.6 57.6-57.6C332.8 480 307.2 454.4 275.2 454.4zM512 454.4C480 454.4 454.4 480 454.4 512c0 32 25.6 57.6 57.6 57.6 32 0 57.6-25.6 57.6-57.6C569.6 480 544 454.4 512 454.4zM748.8 454.4c-32 0-57.6 25.6-57.6 57.6 0 32 25.6 57.6 57.6 57.6 32 0 57.6-25.6 57.6-57.6C806.4 480 780.8 454.4 748.8 454.4z" p-id="3407" fill="#ffffff"></path></svg>